<svg width="757" height="829" viewBox="0 0 757 829" fill="none" xmlns="http://www.w3.org/2000/svg"><path d="M678 441c0-165.133-133.867-299-299-299v598c165.133 0 299-133.867 299-299Z" fill="#EDB526"/><path d="M80 433c0-165.133 133.867-299 299-299v598C213.867 732 80 598.133 80 433Z" fill="#F5DE4A"/><path fill="#fff" d="M431 238h299v237H431z"/><path d="M522.2 310.4c-8.4 2.1-19.4 8.1-25.5 13.9-11.6 11.2-17.5 24.1-18.4 40.2-1 17.2 4.7 31.6 17.2 44.1 23.1 23 59.2 23 82 0 12.7-12.7 18.2-27 17.2-44.6-.7-11.9-3.4-19.8-9.9-29.6-7.9-11.8-19.9-20.2-34-24-6.5-1.7-21.4-1.7-28.6 0Zm9.9 22.7c6.9 3.5 11.9 11.6 11.9 19.4 0 9.6-7.5 19.2-16.8 21.5-14 3.3-27.2-7.1-27.2-21.4 0-7 2.4-12.1 8.1-16.9 6.8-5.9 15.7-6.9 24-2.6Z" fill="#3F3E3E"/><path fill="#fff" d="M20 238h299v237H20z"/><path d="M206.5 310.4c-16.4 4-31.9 16.7-39.1 32.1-10.6 22.5-5 50.6 13.5 67.7 23.3 21.4 58.3 20.7 80.7-1.6 11.5-11.5 17.4-25.5 17.4-41.6 0-26.1-18.4-49.9-43.6-56.4-7.3-1.9-21.7-2-28.9-.2Zm9.6 22.7c6.9 3.5 11.9 11.6 11.9 19.4 0 9.9-7.5 19.4-17.2 21.5-17.6 4-32.4-14.1-24.9-30.6 2.2-4.9 9-10.9 13.9-12.3 4.7-1.2 11.6-.4 16.3 2Z" fill="#3F3E3E"/><path d="M229.5 1c-11.2 2.5-20 7.4-27 15.2-18.4 20.5-12.9 50.7 11.9 65.2l6.6 3.9V167l-3.7 2.3c-2.1 1.3-19.8 11.6-39.3 22.8l-35.5 20.4-41 .6c-45.1.6-46.2.7-60 7.3-19.3 9.2-33.4 26-39.2 46.6-1.7 6-1.8 12.3-1.8 89 0 92.8-.4 87.6 7.7 104 3.3 6.7 5.8 10.1 12.7 17 4.7 4.7 11.5 10.2 15.1 12.3 7.4 4.3 19.5 8.4 27.4 9.3l5.4.6.5 26.7c.3 18.6.9 29.3 2.1 35.6 7.5 41.1 27.6 71.6 62.2 94.6 4.4 3 18 11 30.2 17.9 15.5 8.8 22.2 13 22.2 14.2 0 1.3.8 1.8 2.8 1.8 3.1 0 31.1 16 86.7 49.5 41.8 25.2 49.3 28.8 75.5 36.4 2 .6 4.5 5.2 14.9 26.9 6.8 14.4 12.6 26 12.9 25.7.3-.3 6-12.1 12.7-26.2l12.1-25.7 10-2.9c19.5-5.6 25.5-8.6 71.4-36.2 34-20.5 78.4-46.5 111.5-65.3 12.7-7.2 27.1-15.9 32-19.4 30.3-21.5 50.1-52.8 57.2-90.8 1.1-5.9 1.7-16.9 2-35.6l.5-27.2 5.4-.6c7.9-.9 20-5 27.4-9.3 3.6-2.1 10.4-7.6 15.1-12.3 6.9-6.9 9.4-10.3 12.7-17 8.1-16.4 7.7-11.2 7.7-104 0-76.7-.1-83-1.8-89-5.8-20.6-19.9-37.4-39.2-46.6-13.8-6.6-14.9-6.7-60-7.3l-41-.6-34-19.6c-18.7-10.8-39.4-22.8-46-26.7l-12-7-.3-37.4-.2-37.5 4.2-1.9c18.8-8.5 29-30.8 22.9-50.3-3.8-12.3-11.1-20.5-23.6-26.7-27.1-13.2-60.8.7-67.9 28.1-5.2 19.7 4.6 40 23.7 49.1l3.7 1.8v25.8c0 14.2-.3 25.8-.6 25.8s-8.9-5-19-11.1c-28.3-17-41.3-22.6-62.4-26.9-14.4-3-34.5-3-48.6-.1-22.4 4.6-35.7 10.6-70 31.4-13.3 8.1-24.9 15-25.8 15.3-1.4.6-1.6-2.3-1.6-29.4v-30l5.7-3.2c30.1-17 31.9-55.6 3.4-74-9.7-6.2-26.1-9.4-36.6-7ZM246 35c12.8 6.5 7.2 25-7.5 25-8 0-15.5-6.5-15.5-13.5 0-1.8 1-4.7 2.3-6.6 4.4-6.6 13.2-8.7 20.7-4.9Zm264-.2c5.3 2.6 8.3 7.7 7.7 13C516.6 57.7 504.8 63 495 58c-4.6-2.3-7-6.3-7-11.5 0-10.2 12.1-16.7 22-11.7ZM399.8 148.5c19.5 4.1 28.8 8.4 65.2 30.2 15.7 9.3 35 20.8 43 25.4l14.5 8.4-26 .6c-23.4.5-26.7.8-33 2.8-25 8.1-42.9 26.5-49.7 50.8-2.2 7.6-2.2 9.3-2.6 83.3-.2 49.5 0 78.7.7 84.7 1.3 10.5 4.6 20.6 9.8 29.6 4.4 7.6 16.9 20 24.7 24.6 8.3 4.9 20.4 8.9 30.4 10.1 5.1.6 41.6 1 87 1H642v20H115v-21h83.8c80.7 0 84.2-.1 91.7-2 26-6.6 46.1-26.5 52.6-51.8 1.8-7.1 1.9-11.7 1.9-89.1 0-90.3.1-87.9-6.6-101.8-6.8-14.2-19.6-27-33.7-33.7-13.2-6.3-16.5-6.8-45-7.3l-25.8-.5 19.8-11.5c10.9-6.4 30.2-17.8 42.8-25.3 27.8-16.6 32.7-19.1 45.8-23.5 9-3 14.3-4.2 26.2-5.9 5.2-.8 24.3.4 31.3 1.9Zm-114.7 91.1c18.2 5.4 32 20.4 34.9 38 1.4 8.2 1.3 149-.1 157.4-3.2 19.7-20 36-40.4 39-4.6.7-42.1 1-111 .8-103.4-.3-104-.3-110.2-2.4-15.7-5.4-28-18.1-31.8-33.1-1.4-5.3-1.5-16.1-1.3-85.9l.3-79.9 3.8-7.9c6.1-12.8 17.5-22.4 30.8-26 4.6-1.2 22.2-1.5 112.5-1.5 95.2-.1 107.6.1 112.5 1.5Zm411.4-.1c13.6 3.6 25 13.1 31.2 26.1l3.8 7.9.3 79.9c.2 69.8.1 80.6-1.3 85.9-3.8 15-16.1 27.7-31.8 33.1-6.2 2.1-6.8 2.1-110.2 2.4-68.9.2-106.4-.1-111-.8-20.4-3-37.2-19.3-40.4-39-1.4-8.4-1.5-149.2-.1-157.4 2.8-17.3 16-32 33.9-37.7 5.2-1.7 12.9-1.8 112.6-1.8 93.1-.1 107.8.1 113 1.4Zm-60 316.7c-2.1 6.9-7.1 18.2-10.8 24.3l-4.2 7H135.6l-4.2-6.7c-3.5-5.8-8.7-17.5-10.9-24.6l-.6-2.2h517.2l-.6 2.2Zm-52.6 66.2c-.2.2-13.6 7.8-29.7 17L525 656H232.1l-26.8-15.2c-14.7-8.3-28.1-16-29.8-17-2.9-1.7 3.1-1.8 202.9-1.8 113.3 0 205.7.2 205.5.4Zm-118.5 68.5c-2.5 2.2-29.4 17.7-36.7 21-33.2 15.3-65 15.6-98.1 1.1-7.8-3.5-39.6-21.6-39.6-22.6 0-.2 39.5-.4 87.7-.4 48.5 0 87.3.4 86.7.9Z" fill="#3F3E3E"/></svg>
